<?xml version="1.0" encoding="UTF-8" standalone="no"?>
<svg
   viewBox="0 0 18 18"
   width="12"
   height="12"
   fill="currentColor"
   version="1.1"
   id="svg1"
   sodipodi:docname="ruler-2-line.svg"
   xmlns:inkscape="http://www.inkscape.org/namespaces/inkscape"
   xmlns:sodipodi="http://sodipodi.sourceforge.net/DTD/sodipodi-0.dtd"
   xmlns="http://www.w3.org/2000/svg"
   xmlns:svg="http://www.w3.org/2000/svg">
  <defs
     id="defs1" />
  <sodipodi:namedview
     id="namedview1"
     pagecolor="#ffffff"
     bordercolor="#000000"
     borderopacity="0.25"
     inkscape:showpageshadow="2"
     inkscape:pageopacity="0.0"
     inkscape:pagecheckerboard="0"
     inkscape:deskcolor="#d1d1d1">
    <inkscape:page
       x="0"
       y="0"
       width="18"
       height="18"
       id="page2"
       margin="0"
       bleed="0" />
  </sodipodi:namedview>
  <path
     d="M 4,16 H 2 v -5 h 9 V 2 h 5 v 2 h -2 v 2 h 2 v 2 h -3 v 2 h 3 v 2 h -2 v 2 h 2 v 2 h -2 v -2 h -2 v 2 H 10 V 13 H 8 v 3 H 6 V 14 H 4 Z M 9,9 H 1 C 0.4477,9 0,9.4477 0,10 v 7 c 0,0.5523 0.4477,1 1,1 h 16 c 0.55228,0 1,-0.4477 1,-1 V 1 C 18,0.44772 17.55228,0 17,0 H 10 C 9.4477,0 9,0.44772 9,1 Z"
     id="path1"
     inkscape:export-filename="path1.svg"
     inkscape:export-xdpi="96"
     inkscape:export-ydpi="96" />
</svg>
